<svg width="1440" height="3123" viewBox="0 0 1440 3123" fill="none" xmlns="http://www.w3.org/2000/svg">
<g opacity="0.11" clip-path="url(#clip0_1_789)">
<path d="M430.526 523.439L694.33 718.67L825.922 1107.9L825.922 1108.51L1089.73 1303.74L1221.32 1692.97L1221.32 1693.59L1485.12 1888.82L1573.89 2150.77L1573.89 2142.74L1486.99 1886.35L1486.99 1885.73L1223.18 1690.5L1091.59 1301.27L1091.59 1300.66L827.784 1105.42L696.193 716.199L696.193 715.581L432.388 520.35L300.796 131.124L300.796 130.506L126.995 1.99994L121.409 1.99994L298.934 134.213L430.526 523.439ZM397.628 572.247L661.432 767.478L793.024 1156.7L793.024 1157.32L1056.83 1352.55L1188.42 1741.78L1188.42 1742.4L1452.85 1938.25L1574.51 2297.82L1574.51 2289.78L1454.71 1936.39L1454.71 1935.77L1190.9 1740.54L1059.31 1351.32L1059.31 1350.7L795.507 1155.47L663.915 766.242L663.915 765.624L400.111 570.394L268.519 181.167L268.519 180.55L28.9221 3.23554L23.3356 3.23554L266.657 183.021L397.628 572.247ZM-262.194 377.634L1.6106 572.865L133.203 962.091L133.203 962.709L397.007 1157.94L528.599 1547.17L528.599 1547.78L792.404 1743.01L923.995 2132.24L923.995 2132.86L1187.8 2328.09L1319.39 2717.32L1319.39 2717.93L1572.64 2905.13L1572.64 2901.43L1320.63 2715.46L1189.04 2326.24L1189.04 2325.62L925.237 2130.39L793.645 1741.16L793.645 1740.54L529.84 1545.31L398.248 1156.09L398.248 1155.47L134.444 960.237L2.85198 571.011L2.85198 570.394L-260.332 375.163L-386.337 3.23556L-388.82 3.23556L-262.194 377.634ZM-229.296 328.826L34.5086 524.057L166.1 913.283L166.1 913.901L429.905 1109.13L561.497 1498.36L561.497 1498.98L825.302 1694.21L956.894 2083.43L956.894 2084.05L1220.7 2279.28L1352.29 2668.51L1352.29 2669.13L1572.64 2832.23L1572.64 2828.52L1354.15 2666.65L1222.56 2277.43L1222.56 2276.81L958.756 2081.58L827.164 1692.35L827.164 1691.74L563.359 1496.5L431.767 1107.28L431.767 1106.66L167.963 911.429L36.3707 522.203L36.3707 521.586L-227.434 326.355L-336.68 3.23556L-339.163 3.23556L-229.296 328.826ZM727.228 85.4054L991.033 280.636L1122.62 669.862L1122.62 670.48L1386.43 865.711L1518.02 1254.94L1518.02 1255.55L1573.89 1296.95L1573.89 1293.24L1519.88 1253.7L1388.29 864.475L1388.29 863.858L1124.49 668.627L992.895 279.401L992.895 278.783L729.09 83.5519L702.4 3.85368L699.917 3.85368L727.228 85.4054ZM760.747 36.5978L1024.55 231.828L1156.14 621.054L1156.14 621.672L1419.95 816.903L1551.54 1206.13L1551.54 1206.75L1573.89 1223.43L1573.89 1219.72L1552.78 1204.28L1421.19 815.05L1421.19 814.432L1157.38 619.201L1025.79 229.975L1025.79 229.357L761.988 34.1264L751.436 3.23551L748.953 3.23551L760.747 36.5978ZM496.322 425.824L760.126 621.054L891.718 1010.28L891.718 1010.9L1155.52 1206.13L1287.11 1595.36L1287.11 1595.97L1550.92 1791.2L1573.27 1857.93L1573.27 1849.9L1552.78 1788.73L1552.78 1788.11L1288.98 1592.88L1157.38 1203.66L1157.38 1203.04L893.58 1007.81L761.988 618.583L761.988 617.965L498.184 422.735L366.592 33.5087L366.592 32.8908L325.004 1.99993L319.417 1.99993L364.73 35.3622L496.322 425.824ZM463.424 474.632L727.228 669.862L858.82 1059.09L858.82 1059.71L1123.25 1255.55L1254.84 1644.78L1254.84 1645.4L1518.64 1840.63L1574.51 2004.97L1574.51 1996.94L1521.13 1838.16L1521.13 1837.54L1257.32 1642.31L1125.73 1253.08L1125.73 1252.47L861.924 1057.23L730.332 668.009L730.332 667.391L466.527 472.16L334.935 82.9343L334.935 82.3163L227.551 2.61786L221.965 2.61786L333.073 84.7878L463.424 474.632ZM-97.0834 134.213L166.721 329.444L298.313 718.67L298.313 719.288L562.118 914.519L693.71 1303.74L693.71 1304.36L957.514 1499.59L1089.11 1888.82L1089.11 1889.44L1352.91 2084.67L1484.5 2473.89L1484.5 2474.51L1573.27 2540L1573.27 2536.29L1486.36 2472.04L1354.77 2082.81L1354.77 2082.2L1090.97 1886.97L959.376 1497.74L959.376 1497.12L695.572 1301.89L563.98 912.665L563.98 912.047L300.175 716.816L168.583 327.59L168.583 326.973L-95.2213 131.742L-138.671 3.23555L-141.154 3.23555L-97.0834 134.213ZM-31.2874 36.5979L232.517 231.828L364.109 621.054L364.109 621.672L627.914 816.903L759.506 1206.13L759.506 1206.75L1023.31 1401.98L1154.9 1791.2L1154.9 1791.82L1418.71 1987.05L1550.3 2376.28L1550.3 2376.9L1572.64 2393.58L1572.64 2389.87L1551.54 2374.43L1419.95 1985.2L1419.95 1984.58L1156.14 1789.35L1024.55 1400.12L1024.55 1399.51L760.747 1204.28L629.155 815.05L629.155 814.432L365.35 619.201L233.759 229.975L233.759 229.357L-30.046 34.1264L-40.5982 3.23554L-43.081 3.23554L-31.2874 36.5979ZM-64.1854 85.4055L199.619 280.636L331.211 669.862L331.211 670.48L595.636 865.093L727.228 1254.32L727.228 1254.94L991.653 1450.17L1123.25 1839.39L1123.25 1840.01L1387.05 2035.24L1518.64 2424.47L1518.64 2425.09L1574.51 2466.48L1574.51 2462.77L1520.5 2423.23L1388.91 2034.01L1388.91 2033.39L1125.11 1838.16L993.516 1448.93L993.516 1448.31L729.711 1253.08L598.119 863.858L598.119 863.24L334.315 668.009L202.723 278.783L202.723 278.165L-62.3233 82.9343L-89.0141 3.23555L-91.4969 3.23555L-64.1854 85.4055ZM-196.398 280.636L68.0273 475.249L199.619 864.475L199.619 865.093L463.424 1060.32L595.636 1450.17L595.636 1450.79L859.441 1646.02L991.033 2035.24L991.033 2035.86L1254.84 2231.09L1386.43 2620.32L1386.43 2620.94L1573.89 2759.33L1573.89 2755.62L1388.29 2618.46L1256.7 2229.24L1256.7 2228.62L992.895 2033.39L861.303 1644.16L861.303 1643.55L597.499 1448.31L465.907 1059.09L465.907 1058.47L202.102 863.24L70.5102 474.014L70.5102 473.396L-193.294 278.165L-286.402 3.85372L-288.885 3.85372L-196.398 280.636ZM-295.092 425.824L-31.2874 621.672L100.304 1010.9L100.304 1011.52L364.109 1206.75L495.701 1595.97L495.701 1596.59L759.506 1791.82L891.098 2181.05L891.098 2181.67L1156.14 2376.9L1287.74 2766.12L1287.74 2766.74L1551.54 2961.97L1573.89 3028.7L1573.89 3020.66L1553.4 2959.5L1553.4 2958.88L1289.6 2763.65L1158.01 2374.43L1158.01 2373.81L894.201 2178.58L762.609 1789.35L762.609 1788.73L498.805 1593.5L367.213 1204.28L367.213 1203.66L103.408 1008.43L-28.1838 619.201L-28.1838 618.583L-291.988 423.352L-423.58 34.1264L-423.58 33.5088L-465.168 2.61789L-471.996 2.61789L-426.684 35.9799L-295.092 425.824ZM-162.879 231.828L100.925 427.059L232.517 816.285L232.517 816.903L496.322 1011.52L627.914 1400.74L627.914 1401.36L891.718 1596.59L1023.31 1985.82L1023.31 1986.43L1287.11 2181.67L1418.71 2570.89L1418.71 2571.51L1574.51 2685.81L1574.51 2682.1L1421.81 2569.04L1290.22 2179.81L1290.22 2179.19L1026.41 1983.96L894.822 1594.74L894.822 1594.12L631.017 1398.89L499.425 1009.66L499.425 1009.05L235.621 813.814L104.029 424.588L104.029 423.97L-161.638 228.739L-237.986 2.61788L-240.469 2.61788L-162.879 231.828ZM694.33 134.213L958.135 329.444L1089.73 718.67L1089.73 719.288L1353.53 914.519L1485.12 1303.74L1485.12 1304.36L1574.51 1369.85L1574.51 1366.14L1487.61 1301.89L1356.01 912.665L1356.01 912.047L1092.21 716.816L960.618 327.59L960.618 326.973L696.813 131.742L653.363 3.23551L650.88 3.23551L694.33 134.213ZM-460.203 85.4055L-328.611 474.632L-328.611 475.249L-64.8061 670.48L66.7859 1059.71L66.7859 1060.32L330.59 1255.55L462.182 1644.78L462.182 1645.4L725.987 1840.63L857.579 2229.86L857.579 2230.47L1123.25 2425.7L1254.84 2814.93L1254.84 2815.55L1518.64 3010.78L1574.51 3175.12L1574.51 3167.09L1521.13 3008.31L1521.13 3007.69L1257.32 2812.46L1125.73 2423.23L1125.73 2422.62L861.924 2227.38L730.332 1838.16L730.332 1837.54L466.527 1642.31L334.935 1253.08L334.935 1252.47L71.1308 1057.23L-60.4611 668.009L-60.4611 667.391L-324.266 472.16L-455.858 82.9343L-455.858 82.3164L-563.242 2.61789L-571.311 2.61789L-460.203 85.4055ZM-129.981 183.021L133.823 378.252L265.415 767.478L265.415 768.096L529.22 963.326L660.812 1352.55L660.812 1353.17L924.616 1548.4L1056.21 1937.63L1056.21 1938.25L1320.01 2133.48L1451.6 2522.7L1451.6 2523.32L1573.27 2612.9L1573.27 2609.2L1453.47 2520.85L1321.87 2131.62L1321.87 2131L1058.07 1935.77L926.478 1546.55L926.478 1545.93L662.674 1350.7L531.082 961.473L531.082 960.855L267.277 765.624L135.685 376.398L135.685 375.781L-128.119 180.55L-188.329 3.23555L-190.812 3.23555L-129.981 183.021ZM1387.05 280.636L1574.51 419.028L1574.51 415.321L1388.91 278.165L1295.8 3.85365L1293.32 3.85365L1387.05 280.636ZM1419.95 231.828L1574.51 346.125L1574.51 342.418L1421.81 229.357L1345.46 3.23548L1342.98 3.23548L1419.95 231.828ZM1321.25 377.634L1574.51 564.833L1574.51 561.126L1322.5 375.163L1196.49 3.23549L1194.01 3.23549L1321.25 377.634ZM1452.85 183.021L1574.51 272.604L1574.51 268.898L1454.71 180.549L1394.5 3.23548L1392.02 3.23548L1452.85 183.021ZM1287.74 425.824L1551.54 621.054L1573.89 687.779L1573.89 679.747L1553.4 618.583L1553.4 617.965L1289.6 422.735L1158.01 33.5087L1158.01 32.8908L1116.42 1.9999L1110.83 1.9999L1156.14 35.3622L1287.74 425.824ZM1552.16 36.5978L1574.51 53.2789L1574.51 49.5719L1553.4 34.1263L1542.85 3.23548L1540.37 3.23548L1552.16 36.5978ZM1519.26 85.4054L1575.13 126.799L1575.13 123.092L1521.12 83.5519L1494.43 3.85364L1491.95 3.85364L1519.26 85.4054ZM661.432 183.021L925.237 378.252L1056.83 767.478L1056.83 768.096L1320.63 963.326L1452.23 1352.55L1452.23 1353.17L1573.89 1442.75L1573.89 1439.05L1454.09 1350.7L1322.5 961.473L1322.5 960.855L1058.69 765.624L927.099 376.398L927.099 375.78L663.294 180.549L603.085 3.23552L600.602 3.23552L661.432 183.021ZM1486.36 134.213L1575.13 199.702L1575.13 195.995L1488.23 131.742L1444.78 3.23548L1442.29 3.23548L1486.36 134.213ZM1254.84 474.632L1518.64 669.862L1574.51 834.202L1574.51 826.171L1521.13 667.391L1521.13 666.773L1257.32 471.542L1125.73 82.3163L1125.73 81.6986L1018.34 1.9999L1012.76 1.9999L1123.25 85.4054L1254.84 474.632ZM562.738 328.826L826.543 524.057L958.135 913.283L958.135 913.901L1221.94 1109.13L1353.53 1498.36L1353.53 1498.98L1573.89 1662.08L1573.89 1658.37L1355.39 1496.5L1223.8 1107.28L1223.8 1106.66L959.997 911.429L828.405 522.203L828.405 521.586L564.601 326.355L455.354 3.23552L452.871 3.23552L562.738 328.826ZM628.534 231.828L892.339 427.059L1023.93 816.285L1023.93 816.903L1288.36 1011.52L1419.95 1400.74L1419.95 1401.36L1574.51 1515.66L1574.51 1511.95L1421.81 1398.89L1290.22 1009.66L1290.22 1009.05L1026.41 813.814L894.822 424.588L894.822 423.97L631.017 228.739L554.669 2.61784L552.186 2.61784L628.534 231.828ZM595.636 280.636L859.441 475.867L991.033 865.093L991.033 865.711L1254.84 1060.94L1386.43 1450.17L1386.43 1450.79L1573.89 1589.18L1573.89 1585.47L1388.29 1448.31L1256.7 1059.09L1256.7 1058.47L992.895 863.24L861.303 474.014L861.303 473.396L597.499 278.165L504.391 3.85368L501.908 3.85368L595.636 280.636ZM529.84 377.634L793.645 572.865L925.237 962.091L925.237 962.709L1189.04 1157.94L1320.63 1547.17L1320.63 1547.78L1573.89 1734.98L1573.89 1731.28L1321.87 1545.31L1190.28 1156.09L1190.28 1155.47L926.478 960.237L794.886 571.011L794.886 570.394L531.082 375.163L405.076 3.23552L402.594 3.23552L529.84 377.634ZM1221.94 523.439L1485.74 718.67L1574.51 980.625L1574.51 972.594L1487.61 716.199L1487.61 715.581L1223.8 520.35L1092.21 131.124L1092.21 130.506L918.409 1.99991L912.823 1.99991L1090.35 134.213L1221.94 523.439ZM1189.04 572.247L1452.85 767.478L1574.51 1127.05L1574.51 1119.02L1454.71 765.624L1454.71 765.007L1190.9 569.776L1059.31 180.549L1059.31 179.932L819.715 2.61783L814.129 2.61783L1057.45 182.403L1189.04 572.247ZM1354.15 328.826L1574.51 491.93L1574.51 488.223L1356.01 326.355L1246.77 3.23549L1244.29 3.23549L1354.15 328.826ZM300.175 3056.5L168.583 2667.27L168.583 2666.65L-95.2211 2471.42L-226.813 2082.2L-226.813 2081.58L-490.618 1886.35L-622.21 1497.12L-622.21 1496.5L-644.555 1479.82L-644.555 1483.53L-623.451 1498.98L-491.859 1888.2L-491.859 1888.82L-228.054 2084.05L-96.4626 2473.28L-96.4626 2473.89L167.342 2669.13L298.934 3058.35L298.934 3058.97L562.738 3254.2L573.291 3285.09L575.774 3285.09L564.601 3251.73L300.175 3056.5ZM630.397 3154.11L366.592 2958.88L235 2569.66L235 2569.04L-28.8045 2373.81L-160.396 1984.58L-160.396 1983.96L-424.201 1788.73L-555.793 1399.51L-555.793 1398.89L-645.797 1333.4L-645.797 1337.11L-558.897 1401.36L-427.305 1790.59L-427.305 1791.2L-163.5 1986.44L-31.908 2375.66L-31.908 2376.28L231.896 2571.51L363.489 2960.74L363.489 2961.35L627.293 3156.58L670.743 3285.09L673.226 3285.09L630.397 3154.11ZM861.303 2813.69L597.499 2618.46L465.907 2229.24L465.907 2228.62L202.102 2033.39L70.5102 1644.16L70.5102 1643.55L-193.294 1448.31L-324.886 1059.09L-324.886 1058.47L-589.932 862.622L-645.797 698.282L-645.797 706.314L-592.415 865.093L-592.415 865.711L-328.611 1060.94L-197.019 1450.17L-197.019 1450.79L68.0273 1645.4L199.619 2034.62L199.619 2035.24L463.424 2230.47L595.016 2619.7L595.016 2620.32L859.441 2815.55L991.033 3204.77L991.033 3205.39L1099.04 3285.09L1104.62 3285.09L992.895 3202.92L861.303 2813.69ZM828.405 2861.88L564.601 2666.65L433.009 2277.43L433.009 2276.81L169.204 2081.58L37.6122 1692.35L37.6122 1691.74L-226.192 1496.5L-357.784 1107.28L-357.784 1106.66L-621.589 911.43L-645.797 844.705L-645.797 852.737L-625.313 913.901L-625.313 914.519L-361.509 1109.75L-229.917 1498.98L-229.917 1499.59L33.8879 1694.82L165.48 2084.05L165.48 2084.67L429.284 2279.9L560.876 2669.13L560.876 2669.74L824.681 2864.97L956.273 3254.2L956.273 3254.82L997.861 3285.71L1003.45 3285.71L958.135 3252.35L828.405 2861.88ZM-645.797 3185L-645.797 3192.42L-625.313 3253.58L-624.692 3254.2L-583.104 3285.09L-577.518 3285.09L-622.83 3251.73L-645.797 3185ZM729.091 3007.69L465.286 2813.08L333.694 2423.85L333.694 2423.23L69.8895 2228L-61.7025 1838.78L-61.7025 1838.16L-325.507 1642.93L-457.099 1253.7L-457.099 1253.08L-645.797 1114.07L-645.797 1117.78L-460.203 1254.94L-328.611 1644.16L-328.611 1644.78L-64.8061 1840.01L66.7859 2229.24L66.7859 2229.86L330.591 2425.09L462.182 2814.31L462.182 2814.93L725.987 3010.16L820.336 3285.09L822.819 3285.09L729.091 3007.69ZM696.193 3056.5L432.388 2861.27L300.796 2472.04L300.796 2471.42L36.9915 2276.19L-94.6005 1886.97L-94.6005 1886.35L-358.405 1691.12L-489.997 1301.89L-489.997 1301.27L-645.797 1187.59L-645.797 1191.3L-493.101 1304.36L-361.509 1693.59L-361.509 1694.21L-97.704 1889.44L33.8879 2278.66L33.8879 2279.28L297.692 2474.51L429.284 2863.74L429.284 2864.36L693.089 3059.59L770.679 3285.09L773.161 3285.09L696.193 3056.5ZM663.295 3105.31L399.49 2910.07L267.898 2520.85L267.898 2520.23L4.0935 2325L-127.498 1935.77L-127.498 1935.16L-392.544 1740.54L-524.136 1351.32L-524.136 1350.7L-645.797 1260.5L-645.797 1264.2L-525.999 1352.55L-394.407 1741.78L-394.407 1742.4L-129.981 1938.25L1.61067 2327.47L1.61067 2328.09L265.415 2523.32L397.007 2912.55L397.007 2913.16L660.812 3108.39L721.642 3285.09L724.125 3285.09L663.295 3105.31ZM1421.81 3154.11L1158.01 2958.88L1026.41 2569.66L1026.41 2569.04L762.609 2373.81L631.017 1984.58L631.017 1983.96L367.213 1788.73L235.621 1399.51L235.621 1398.89L-28.1838 1203.66L-159.776 814.432L-159.776 813.814L-423.58 618.583L-555.172 229.357L-555.172 228.739L-645.797 163.251L-645.797 166.958L-558.897 231.211L-427.305 620.437L-427.305 621.054L-163.5 816.285L-31.9081 1205.51L-31.9081 1206.13L231.896 1401.36L363.488 1790.59L363.488 1791.2L627.293 1986.43L758.885 2375.66L758.885 2376.28L1022.69 2571.51L1154.28 2960.74L1154.28 2961.35L1418.09 3156.58L1461.54 3285.09L1464.02 3285.09L1421.81 3154.11ZM1388.91 3202.92L1125.11 3007.69L993.516 2618.46L993.516 2617.85L729.711 2422.62L598.119 2033.39L598.119 2032.77L334.315 1837.54L202.723 1448.31L202.723 1447.7L-62.3232 1253.08L-193.915 863.858L-193.915 863.24L-457.72 668.009L-589.312 278.783L-589.312 278.165L-645.176 236.771L-645.176 240.478L-591.174 280.019L-459.582 669.245L-459.582 669.862L-195.777 865.093L-64.1854 1254.32L-64.1854 1254.94L199.619 1450.17L331.211 1839.39L331.211 1840.01L595.636 2035.24L727.228 2424.47L727.228 2425.09L991.033 2620.32L1122.62 3009.54L1122.62 3010.16L1386.43 3205.39L1414.36 3285.09L1416.84 3285.09L1388.91 3202.92ZM1092.21 3056.5L960.618 2667.27L960.618 2666.65L696.813 2471.42L565.221 2082.2L565.221 2081.58L301.417 1886.35L169.825 1497.12L169.825 1496.5L-93.9798 1301.27L-225.572 912.047L-225.572 911.43L-489.376 716.199L-620.968 326.973L-620.968 326.355L-643.314 309.674L-643.314 313.381L-622.21 328.826L-490.618 718.052L-490.618 718.67L-226.813 913.901L-95.2212 1303.13L-95.2212 1303.74L168.583 1498.98L300.175 1888.2L300.175 1888.82L563.98 2084.05L695.572 2473.28L695.572 2473.89L959.376 2669.13L1090.97 3058.35L1090.97 3058.97L1354.15 3254.2L1364.7 3285.09L1367.19 3285.09L1356.01 3251.73L1092.21 3056.5ZM894.201 2764.89L630.397 2569.66L498.805 2180.43L498.805 2179.81L235 1984.58L103.408 1595.36L103.408 1594.74L-161.638 1398.89L-293.23 1009.66L-293.23 1009.05L-557.034 813.814L-645.797 551.859L-645.797 559.89L-558.897 816.285L-558.897 816.903L-295.092 1011.52L-163.5 1400.74L-163.5 1401.36L100.305 1596.59L231.896 1985.82L231.896 1986.43L364.109 2084.05L496.322 2181.67L627.914 2570.89L627.914 2571.51L891.718 2766.74L1023.31 3155.97L1023.31 3156.58L1197.73 3285.09L1203.32 3285.09L1026.41 3154.11L894.201 2764.89ZM1487.61 3056.5L1223.8 2861.27L1092.21 2472.04L1092.21 2471.42L828.405 2276.19L696.813 1886.97L696.813 1886.35L433.009 1691.12L301.417 1301.89L301.417 1301.27L37.6121 1106.04L-93.9798 716.816L-93.9798 716.199L-357.784 520.968L-489.376 131.742L-489.376 131.124L-645.797 17.4453L-645.797 21.1526L-493.101 134.213L-361.509 523.439L-361.509 524.057L-97.704 719.288L33.8879 1108.51L33.8879 1109.13L297.692 1304.36L429.284 1693.59L429.284 1694.21L693.089 1889.44L824.681 2278.66L824.681 2279.28L1088.49 2474.51L1220.08 2863.74L1220.08 2864.36L1483.88 3059.59L1562.71 3285.09L1565.2 3285.09L1487.61 3056.5ZM927.099 2716.08L663.295 2520.85L531.703 2131.62L531.703 2131L267.898 1935.77L136.306 1546.55L136.306 1545.93L-127.498 1350.7L-259.09 961.473L-259.09 960.855L-522.895 765.624L-645.797 406.053L-645.797 414.085L-525.999 767.478L-525.999 768.096L-262.194 963.326L-130.602 1352.55L-130.602 1353.17L133.203 1548.4L264.794 1937.63L264.794 1938.25L528.599 2133.48L660.191 2522.7L660.191 2523.32L923.995 2718.55L1055.59 3107.78L1055.59 3108.39L1297.05 3285.09L1302.63 3285.09L1059.31 3105.31L927.099 2716.08ZM761.989 2958.88L498.184 2763.65L366.592 2374.43L366.592 2373.81L102.787 2178.58L-28.8045 1789.35L-28.8045 1788.73L-292.609 1593.5L-424.201 1204.28L-424.201 1203.66L-645.797 1041.17L-645.797 1044.88L-427.305 1206.75L-295.713 1595.97L-295.713 1596.59L-31.2873 1791.82L100.305 2181.05L100.305 2181.67L364.73 2376.9L496.322 2766.12L496.322 2766.74L760.126 2961.97L869.993 3285.09L872.476 3285.09L761.989 2958.88ZM1454.71 3105.31L1190.9 2910.07L1059.31 2520.85L1059.31 2520.23L795.507 2325L663.915 1935.77L663.915 1935.16L400.111 1739.93L268.519 1350.7L268.519 1350.08L4.71423 1154.85L-126.878 765.624L-126.878 765.007L-390.682 569.776L-522.274 180.55L-522.274 179.932L-645.797 90.3484L-645.797 94.0552L-525.999 182.403L-394.407 571.629L-394.407 572.247L-130.602 767.478L0.98984 1156.7L0.98984 1157.32L264.794 1352.55L396.386 1741.78L396.386 1742.4L661.432 1938.25L793.024 2327.47L793.024 2328.09L1056.83 2523.32L1188.42 2912.55L1188.42 2913.16L1452.23 3108.39L1513.06 3285.09L1515.54 3285.09L1454.71 3105.31ZM597.499 3202.92L333.694 3007.69L202.102 2618.46L202.102 2617.85L-62.3232 2422.62L-193.915 2033.39L-193.915 2032.77L-457.72 1837.54L-589.312 1448.31L-589.312 1447.7L-645.176 1406.3L-645.176 1410.01L-591.794 1450.17L-460.203 1839.39L-460.203 1840.01L-196.398 2035.24L-64.8061 2424.47L-64.8061 2425.09L198.999 2620.32L330.591 3009.54L330.591 3010.16L595.637 3205.39L622.327 3285.09L624.81 3285.09L597.499 3202.92ZM-128.119 3105.31L-391.924 2910.07L-523.516 2520.85L-523.516 2520.23L-645.797 2430.65L-645.797 2434.35L-525.998 2522.7L-394.407 2911.93L-394.407 2912.55L-129.981 3107.78L-70.3925 3285.09L-67.9096 3285.09L-128.119 3105.31ZM-62.3231 3007.69L-326.128 2812.46L-457.72 2423.23L-457.72 2422.62L-645.797 2284.22L-645.797 2287.93L-460.203 2425.09L-328.611 2814.31L-328.611 2814.93L-64.1853 3010.78L28.9222 3285.09L31.4051 3285.09L-62.3231 3007.69ZM-29.4251 2958.88L-293.23 2763.65L-424.822 2374.43L-424.822 2373.81L-645.797 2211.32L-645.797 2215.03L-427.305 2376.9L-295.092 2766.12L-295.092 2766.74L-31.2873 2961.97L77.9588 3285.09L80.4417 3285.09L-29.4251 2958.88ZM-95.2211 3056.5L-359.026 2861.27L-490.618 2472.04L-490.618 2471.42L-645.797 2357.13L-645.797 2360.83L-493.1 2473.89L-361.509 2863.12L-361.509 2863.74L-97.0832 3058.97L-20.7351 3285.09L-18.2522 3285.09L-95.2211 3056.5ZM3.4728 2910.69L-260.332 2715.46L-391.924 2326.24L-391.924 2325.62L-645.797 2137.8L-645.797 2142.13L-393.786 2328.09L-262.194 2717.32L-262.194 2717.93L1.6107 2913.16L127.616 3285.09L130.099 3285.09L3.4728 2910.69ZM-645.797 3038.58L-645.797 3046.61L-592.415 3204.77L-592.415 3205.39L-484.41 3285.09L-478.824 3285.09L-589.932 3202.92L-645.797 3038.58ZM-645.797 2745.73L-645.797 2753.77L-525.998 3107.78L-525.998 3108.39L-286.402 3285.09L-280.815 3285.09L-524.136 3105.31L-645.797 2745.73ZM-645.797 2892.16L-645.797 2900.19L-558.896 3155.97L-558.896 3156.58L-385.096 3285.09L-379.509 3285.09L-556.414 3154.11L-645.797 2892.16ZM36.9915 2861.88L-226.813 2666.65L-358.405 2277.43L-358.405 2276.81L-622.21 2081.58L-645.797 2014.85L-645.797 2022.89L-625.313 2084.05L-625.313 2084.67L-361.509 2279.9L-229.917 2669.13L-229.917 2669.74L33.888 2864.97L165.48 3254.2L165.48 3254.82L207.068 3285.71L212.654 3285.71L167.342 3252.35L36.9915 2861.88ZM-161.638 3154.11L-425.442 2958.88L-557.034 2569.66L-557.034 2569.04L-645.797 2503.55L-645.797 2507.26L-558.896 2571.51L-427.305 2960.74L-427.305 2961.35L-162.879 3156.58L-119.429 3285.09L-116.946 3285.09L-161.638 3154.11ZM135.685 2716.08L-128.119 2520.85L-259.711 2131.62L-259.711 2131L-523.516 1935.77L-645.797 1576.2L-645.797 1584.23L-525.999 1937.63L-525.999 1938.25L-262.194 2133.48L-130.602 2522.7L-130.602 2523.32L133.203 2718.55L264.795 3107.78L264.795 3108.39L505.012 3285.09L510.598 3285.09L267.277 3105.31L135.685 2716.08ZM69.8895 2813.69L-194.536 2617.85L-326.128 2228.62L-326.128 2228L-589.932 2032.77L-645.797 1868.43L-645.797 1876.46L-592.415 2035.24L-592.415 2035.86L-328.611 2231.09L-197.019 2620.32L-197.019 2620.94L68.0274 2815.55L199.619 3204.77L199.619 3205.39L307.624 3285.09L313.21 3285.09L202.102 3202.92L69.8895 2813.69ZM102.787 2764.89L-161.638 2569.04L-293.23 2179.81L-293.23 2179.19L-557.034 1983.96L-645.797 1722.01L-645.797 1730.04L-558.896 1986.44L-558.896 1987.05L-295.092 2182.28L-163.5 2571.51L-163.5 2572.13L100.305 2767.36L231.896 3156.58L231.896 3157.2L406.318 3285.09L411.904 3285.09L235 3154.11L102.787 2764.89ZM-194.536 3202.92L-458.34 3007.69L-589.932 2618.46L-589.932 2617.85L-645.797 2576.45L-645.797 2580.78L-591.794 2620.32L-460.202 3009.54L-460.202 3010.16L-196.398 3205.39L-169.086 3285.09L-166.604 3285.09L-194.536 3202.92ZM-491.238 3056.5L-622.83 2667.27L-622.83 2666.65L-645.176 2649.97L-645.176 2653.68L-624.072 2669.13L-492.48 3058.35L-492.48 3058.97L-229.296 3254.2L-218.744 3285.09L-216.261 3285.09L-227.434 3251.73L-491.238 3056.5ZM795.507 2910.69L531.703 2715.46L400.111 2326.24L400.111 2325.62L136.306 2130.39L4.71425 1741.16L4.71425 1740.54L-259.09 1545.31L-390.682 1156.09L-390.682 1155.47L-645.797 967.651L-645.797 971.358L-393.786 1157.32L-262.194 1546.55L-262.194 1547.17L1.61065 1742.4L133.203 2131.62L133.203 2132.24L397.007 2327.47L528.599 2716.7L528.599 2717.32L792.404 2912.55L919.03 3285.09L921.513 3285.09L795.507 2910.69Z" fill="#CCCCCC"/>
</g>
<defs>
<clipPath id="clip0_1_789">
<rect width="3123" height="2220.92" fill="white" transform="translate(-736 3123) rotate(-90)"/>
</clipPath>
</defs>
</svg>
